<?xml version="1.0" encoding="UTF-8" standalone="no"?>
<!-- Created with Inkscape (http://www.inkscape.org/) -->

<svg
   xmlns:dc="http://purl.org/dc/elements/1.1/"
   xmlns:cc="http://creativecommons.org/ns#"
   xmlns:rdf="http://www.w3.org/1999/02/22-rdf-syntax-ns#"
   xmlns:svg="http://www.w3.org/2000/svg"
   xmlns="http://www.w3.org/2000/svg"
   xmlns:sodipodi="http://sodipodi.sourceforge.net/DTD/sodipodi-0.dtd"
   xmlns:inkscape="http://www.inkscape.org/namespaces/inkscape"
   width="600"
   height="314"
   viewBox="0 0 158.75 83.079169"
   version="1.1"
   id="svg8"
   inkscape:version="0.92.3 (2405546, 2018-03-11)"
   sodipodi:docname="share-image.svg"
   inkscape:export-filename="/home/tsasaki/Study/nc-support/nc-teacher-memo/src/web/share-image.png"
   inkscape:export-xdpi="96"
   inkscape:export-ydpi="96">
  <defs
     id="defs2" />
  <sodipodi:namedview
     id="base"
     pagecolor="#ffffff"
     bordercolor="#666666"
     borderopacity="1.0"
     inkscape:pageopacity="1"
     inkscape:pageshadow="2"
     inkscape:zoom="1.4"
     inkscape:cx="274.08045"
     inkscape:cy="148.72639"
     inkscape:document-units="mm"
     inkscape:current-layer="layer1"
     showgrid="false"
     units="px"
     inkscape:window-width="1920"
     inkscape:window-height="1025"
     inkscape:window-x="0"
     inkscape:window-y="27"
     inkscape:window-maximized="1"
     showguides="true"
     inkscape:guide-bbox="true">
    <sodipodi:guide
       position="213.55655,-55.940477"
       orientation="0,1"
       id="guide4572"
       inkscape:locked="false" />
  </sodipodi:namedview>
  <metadata
     id="metadata5">
    <rdf:RDF>
      <cc:Work
         rdf:about="">
        <dc:format>image/svg+xml</dc:format>
        <dc:type
           rdf:resource="http://purl.org/dc/dcmitype/StillImage" />
        <dc:title />
      </cc:Work>
    </rdf:RDF>
  </metadata>
  <g
     inkscape:label="レイヤー 1"
     inkscape:groupmode="layer"
     id="layer1"
     transform="translate(0,-213.92082)">
    <rect
       style="fill:#008830;fill-opacity:1;stroke:none;stroke-width:0.81800002;stroke-miterlimit:4;stroke-dasharray:none;stroke-opacity:1"
       id="rect815"
       width="162.71878"
       height="17.440628"
       x="-0.94494051"
       y="213.27826" />
    <text
       xml:space="preserve"
       style="font-style:normal;font-variant:normal;font-weight:normal;font-stretch:normal;font-size:10.58333302px;line-height:1.25;font-family:Dyuthi;-inkscape-font-specification:Dyuthi;letter-spacing:0px;word-spacing:0px;fill:#000000;fill-opacity:1;stroke:none;stroke-width:0.26458332"
       x="12.322503"
       y="225.7108"
       id="text819"><tspan
         sodipodi:role="line"
         id="tspan817"
         x="12.322503"
         y="225.7108"
         style="font-style:normal;font-variant:normal;font-weight:normal;font-stretch:normal;font-size:8.46666622px;font-family:'メイリオ';-inkscape-font-specification:'メイリオ';fill:#ffffff;fill-opacity:1;stroke-width:0.26458332">ネイティブキャンプやりました！</tspan></text>
    <flowRoot
       xml:space="preserve"
       id="flowRoot821"
       style="font-style:normal;font-variant:normal;font-weight:normal;font-stretch:normal;font-size:40px;line-height:1.25;font-family:Dyuthi;-inkscape-font-specification:Dyuthi;letter-spacing:0px;word-spacing:0px;fill:#000000;fill-opacity:1;stroke:none"
       transform="matrix(0.26458333,0,0,0.26458333,0,213.92082)"><flowRegion
         id="flowRegion823"><rect
           id="rect825"
           width="157.14285"
           height="47.857143"
           x="35.714287"
           y="69.714287" /></flowRegion><flowPara
         id="flowPara827">今日の実施レッスン</flowPara></flowRoot>    <text
       xml:space="preserve"
       style="font-style:normal;font-variant:normal;font-weight:normal;font-stretch:normal;font-size:10.58333302px;line-height:1.25;font-family:Dyuthi;-inkscape-font-specification:Dyuthi;letter-spacing:0px;word-spacing:0px;fill:#000000;fill-opacity:1;stroke:none;stroke-width:0.26458332"
       x="20.346245"
       y="247.31743"
       id="text831"><tspan
         sodipodi:role="line"
         id="tspan829"
         x="20.346245"
         y="247.31743"
         style="font-size:7.76111126px;stroke-width:0.26458332">今日のレッスン</tspan></text>
    <flowRoot
       xml:space="preserve"
       id="flowRoot841"
       style="fill:black;fill-opacity:1;stroke:none;font-family:Dyuthi;font-style:normal;font-weight:normal;font-size:40px;line-height:1.25;letter-spacing:0px;word-spacing:0px;-inkscape-font-specification:Dyuthi;font-stretch:normal;font-variant:normal"><flowRegion
         id="flowRegion843"><rect
           id="rect845"
           width="198.57143"
           height="86.428574"
           x="34.285713"
           y="155.42857" /></flowRegion><flowPara
         id="flowPara847" /></flowRoot>    <text
       xml:space="preserve"
       style="font-style:normal;font-variant:normal;font-weight:normal;font-stretch:normal;font-size:10.58333302px;line-height:1.25;font-family:Dyuthi;-inkscape-font-specification:Dyuthi;letter-spacing:0px;word-spacing:0px;fill:#000000;fill-opacity:1;stroke:none;stroke-width:0.26458332"
       x="38.175594"
       y="249.56398"
       id="text851"><tspan
         sodipodi:role="line"
         id="tspan849"
         x="38.175594"
         y="258.2973"
         style="stroke-width:0.26458332" /></text>
    <text
       xml:space="preserve"
       style="font-style:normal;font-variant:normal;font-weight:normal;font-stretch:normal;font-size:10.58333302px;line-height:1.25;font-family:Dyuthi;-inkscape-font-specification:Dyuthi;letter-spacing:0px;word-spacing:0px;fill:#000000;fill-opacity:1;stroke:none;stroke-width:0.26458332"
       x="116.33696"
       y="247.50583"
       id="text831-3"><tspan
         sodipodi:role="line"
         id="tspan829-6"
         x="116.33696"
         y="247.50583"
         style="font-size:7.76111126px;stroke-width:0.26458332">今月</tspan></text>
    <path
       style="fill:none;stroke:#000000;stroke-width:0.76500005;stroke-linecap:round;stroke-linejoin:miter;stroke-miterlimit:4;stroke-dasharray:none;stroke-opacity:1"
       d="m 84.376534,245.87331 v 37.4849"
       id="path4570"
       inkscape:connector-curvature="0" />
    <flowRoot
       xml:space="preserve"
       id="flowRoot4592"
       style="fill:black;fill-opacity:1;stroke:none;font-family:Dyuthi;font-style:normal;font-weight:normal;font-size:96px;line-height:1.25;letter-spacing:0px;word-spacing:0px;-inkscape-font-specification:Dyuthi;font-stretch:normal;font-variant:normal;"><flowRegion
         id="flowRegion4594"
         style="font-size:96px;"><rect
           id="rect4596"
           width="120"
           height="98.571434"
           x="-175.71428"
           y="154"
           style="font-size:96px;" /></flowRegion><flowPara
         id="flowPara4598" /></flowRoot>    <text
       xml:space="preserve"
       style="font-style:normal;font-variant:normal;font-weight:normal;font-stretch:normal;font-size:12.69999981px;line-height:1.25;font-family:Dyuthi;-inkscape-font-specification:Dyuthi;letter-spacing:0px;word-spacing:0px;fill:#000000;fill-opacity:1;stroke:none;stroke-width:0.26458332"
       x="137.06583"
       y="281.44427"
       id="text855-7-3-5"><tspan
         sodipodi:role="line"
         id="tspan853-5-5-1"
         x="137.06583"
         y="281.44427"
         style="font-size:9.87777805px;stroke-width:0.26458332">回</tspan></text>
    <text
       xml:space="preserve"
       style="font-style:normal;font-variant:normal;font-weight:normal;font-stretch:normal;font-size:12.69999981px;line-height:1.25;font-family:Dyuthi;-inkscape-font-specification:Dyuthi;letter-spacing:0px;word-spacing:0px;fill:#000000;fill-opacity:1;stroke:none;stroke-width:0.26458332"
       x="57.14328"
       y="281.84216"
       id="text855-7-3-5-1"><tspan
         sodipodi:role="line"
         id="tspan853-5-5-1-7"
         x="57.14328"
         y="281.84216"
         style="font-size:9.87777805px;stroke-width:0.26458332">回</tspan></text>
    <path
       id="path839"
       d="m 11.423806,238.33885 c -3.3961179,0 -6.1491969,2.75308 -6.1491969,6.14919 0,3.39612 2.753079,6.1492 6.1491969,6.1492 3.396118,0 6.149198,-2.75308 6.149198,-6.1492 0,-3.39611 -2.75308,-6.14919 -6.149198,-6.14919 z m 0,1.19016 c 2.740658,0 4.95903,2.21796 4.95903,4.95903 0,2.74066 -2.217951,4.95903 -4.95903,4.95903 -2.7406579,0 -4.9590299,-2.21795 -4.9590299,-4.95903 0,-2.74065 2.217951,-4.95903 4.9590299,-4.95903 m 3.476379,3.22999 -0.558783,-0.56329 c -0.115719,-0.11666 -0.304112,-0.11743 -0.420774,-0.002 l -3.504845,3.47668 -1.4825509,-1.49458 c -0.115719,-0.11666 -0.304113,-0.11743 -0.420774,-0.002 l -0.563321,0.55878 c -0.116661,0.11572 -0.11743,0.30411 -0.0017,0.4208 l 2.2509289,2.26915 c 0.115719,0.11666 0.304112,0.11743 0.420774,0.002 l 4.279371,-4.24503 c 0.116636,-0.11575 0.11738,-0.30414 0.0017,-0.4208 z"
       inkscape:connector-curvature="0"
       style="stroke-width:0.26458332;stroke:none;stroke-opacity:1;fill:#008830;fill-opacity:1" />
    <path
       id="path861"
       d="m 105.13343,244.72047 h -0.96519 c -0.15926,0 -0.28956,-0.13028 -0.28956,-0.28955 v -0.9652 c 0,-0.15921 0.13031,-0.28954 0.28956,-0.28954 h 0.96519 c 0.15926,0 0.28956,0.13028 0.28956,0.28954 v 0.9652 c 0,0.15921 -0.1303,0.28955 -0.28956,0.28955 z m 2.60602,-0.28955 v -0.9652 c 0,-0.15921 -0.13031,-0.28954 -0.28956,-0.28954 h -0.96519 c -0.15925,0 -0.28955,0.13028 -0.28955,0.28954 v 0.9652 c 0,0.15921 0.1303,0.28955 0.28955,0.28955 h 0.96519 c 0.15926,0 0.28956,-0.13028 0.28956,-0.28955 z m 2.31645,0 v -0.9652 c 0,-0.15921 -0.1303,-0.28954 -0.28955,-0.28954 h -0.96519 c -0.15926,0 -0.28956,0.13028 -0.28956,0.28954 v 0.9652 c 0,0.15921 0.13031,0.28955 0.28956,0.28955 h 0.96519 c 0.15925,0 0.28955,-0.13028 0.28955,-0.28955 z m -2.31645,2.31644 v -0.96518 c 0,-0.15921 -0.13031,-0.28955 -0.28956,-0.28955 h -0.96519 c -0.15925,0 -0.28955,0.13028 -0.28955,0.28955 v 0.96518 c 0,0.15924 0.1303,0.28957 0.28955,0.28957 h 0.96519 c 0.15926,0 0.28956,-0.13029 0.28956,-0.28957 z m -2.31646,0 v -0.96518 c 0,-0.15921 -0.1303,-0.28955 -0.28956,-0.28955 h -0.96519 c -0.15926,0 -0.28956,0.13028 -0.28956,0.28955 v 0.96518 c 0,0.15924 0.13031,0.28957 0.28956,0.28957 h 0.96519 c 0.15926,0 0.28956,-0.13029 0.28956,-0.28957 z m 4.63291,0 v -0.96518 c 0,-0.15921 -0.1303,-0.28955 -0.28955,-0.28955 h -0.96519 c -0.15926,0 -0.28956,0.13028 -0.28956,0.28955 v 0.96518 c 0,0.15924 0.13031,0.28957 0.28956,0.28957 h 0.96519 c 0.15925,0 0.28955,-0.13029 0.28955,-0.28957 z m 2.31646,-6.27371 v 8.49366 c 0,0.63944 -0.51879,1.15822 -1.15823,1.15822 h -8.49368 c -0.63945,0 -1.15824,-0.51878 -1.15824,-1.15822 v -8.49366 c 0,-0.63945 0.51879,-1.15823 1.15824,-1.15823 h 1.15823 v -1.25475 c 0,-0.15922 0.13031,-0.28956 0.28956,-0.28956 h 0.96519 c 0.15926,0 0.28956,0.13029 0.28956,0.28956 v 1.25475 h 3.08861 v -1.25475 c 0,-0.15922 0.13031,-0.28956 0.28956,-0.28956 h 0.96519 c 0.15925,0 0.28955,0.13029 0.28955,0.28956 v 1.25475 h 1.15823 c 0.63944,0 1.15823,0.51878 1.15823,1.15823 z m -1.15823,8.34887 v -7.19064 h -8.49368 v 7.19064 c 0,0.0795 0.0652,0.14485 0.14477,0.14485 h 8.20413 c 0.0796,0 0.14476,-0.0653 0.14476,-0.14485 z"
       inkscape:connector-curvature="0"
       style="fill:#008830;fill-opacity:1;stroke-width:0.26458332" />
    <path
       id="path872"
       d="m 148.53504,222.40002 c 0.1692,-0.28649 0.26489,-0.59208 0.26489,-0.96154 0,-0.84916 -0.71803,-1.65106 -1.65569,-1.65106 h -0.70379 c 0.0949,-0.24714 0.17074,-0.5427 0.17074,-0.89787 0,-1.40439 -0.72713,-2.02052 -1.83801,-2.02052 -1.18855,0 -1.12076,1.8315 -1.38443,2.09517 -0.43885,0.43886 -0.9572,1.28194 -1.32655,1.609 h -1.90534 c -0.34097,0 -0.61737,0.27641 -0.61737,0.61737 v 4.63022 c 0,0.34095 0.2764,0.61736 0.61737,0.61736 h 1.23473 c 0.28732,0 0.52876,-0.19629 0.59764,-0.46206 0.85869,0.0193 1.4481,0.77055 3.43025,0.77055 0.1393,0 0.29364,2.2e-4 0.42869,2.2e-4 1.48778,0 2.1605,-0.76057 2.1789,-1.83917 0.25696,-0.35546 0.39163,-0.83193 0.33453,-1.29241 0.19011,-0.35597 0.26362,-0.77832 0.17344,-1.21523 z m -1.19131,1.03852 c 0.24232,0.40766 0.0243,0.95324 -0.26894,1.11067 0.14855,0.94109 -0.3397,1.27138 -1.02482,1.27138 h -0.72965 c -1.3821,0 -2.27708,-0.72964 -3.31138,-0.72964 v -3.5917 h 0.21068 c 0.54713,0 1.31151,-1.36765 1.82392,-1.88025 0.54713,-0.54714 0.36482,-1.4591 0.72964,-1.82392 0.91196,0 0.91196,0.63626 0.91196,1.09447 0,0.75568 -0.54714,1.09427 -0.54714,1.82392 h 2.00624 c 0.40727,0 0.72791,0.36482 0.72965,0.72964 0.002,0.36462 -0.24733,0.72946 -0.42965,0.72946 0.26024,0.28079 0.31584,0.87271 -0.10051,1.26597 z m -6.10649,1.76489 c 0,0.25572 -0.2073,0.46302 -0.46302,0.46302 -0.25573,0 -0.46302,-0.2073 -0.46302,-0.46302 0,-0.25572 0.20729,-0.46303 0.46302,-0.46303 0.25572,0 0.46302,0.20731 0.46302,0.46303 z"
       inkscape:connector-curvature="0"
       style="fill:#ffffff;fill-opacity:1;stroke-width:0.26458332" />
  </g>
</svg>
